<?xml version="1.0" encoding="UTF-8" standalone="no"?><svg xmlns="http://www.w3.org/2000/svg" xmlns:xlink="http://www.w3.org/1999/xlink" clip-rule="evenodd" stroke-miterlimit="10" viewBox="0 0 1024 768"><desc>SVG generated by Keynote</desc><defs></defs><g transform="matrix(1.00, 0.00, -0.00, -1.00, 0.0, 768.0)"><g><clipPath id="clip0x7f8c2a184490"><path d="M 0.0 768.0 L 1024.0 768.0 L 1024.0 0.0 L 0.0 0.0 Z M 0.0 768.0 "></path></clipPath><g clip-path="url(#clip0x7f8c2a184490)"><image xlink:href="../../63FDE3F6-E1E4-4BEC-8BAE-FAEF5D63F8B5/assets/C19780437E2888C56A11E401FA33117E.png" width="1920.00" height="1080.00" transform="matrix(0.53, 0.00, -0.00, -0.71, 0.0, 768.0)"></image></g></g><text xml:space="preserve" font-family="DINOT,DIN OT" font-size="72.0" fill="#FEFFFF" transform="matrix(1.00, 0.00, -0.00, -1.00, 190.7, 588.9)">M</text><text xml:space="preserve" font-family="DINOT,DIN OT" font-size="72.0" fill="#FEFFFF" transform="matrix(1.00, 0.00, -0.00, -1.00, 249.4, 588.9)">O</text><text xml:space="preserve" font-family="DINOT,DIN OT" font-size="72.0" fill="#FEFFFF" transform="matrix(1.00, 0.00, -0.00, -1.00, 294.8, 588.9)">T</text><text xml:space="preserve" font-family="DINOT,DIN OT" font-size="72.0" fill="#FEFFFF" transform="matrix(1.00, 0.00, -0.00, -1.00, 334.2, 588.9)">I</text><text xml:space="preserve" font-family="DINOT,DIN OT" font-size="72.0" fill="#FEFFFF" transform="matrix(1.00, 0.00, -0.00, -1.00, 354.5, 588.9)">O</text><text xml:space="preserve" font-family="DINOT,DIN OT" font-size="72.0" fill="#FEFFFF" transform="matrix(1.00, 0.00, -0.00, -1.00, 401.3, 588.9)">N</text><text xml:space="preserve" font-family="DINOT,DIN OT" font-size="72.0" fill="#FEFFFF" transform="matrix(1.00, 0.00, -0.00, -1.00, 454.0, 588.9)"> </text><text xml:space="preserve" font-family="DINOT,DIN OT" font-size="72.0" fill="#FEFFFF" transform="matrix(1.00, 0.00, -0.00, -1.00, 472.0, 588.9)">C</text><text xml:space="preserve" font-family="DINOT,DIN OT" font-size="72.0" fill="#FEFFFF" transform="matrix(1.00, 0.00, -0.00, -1.00, 517.1, 588.9)">O</text><text xml:space="preserve" font-family="DINOT,DIN OT" font-size="72.0" fill="#FEFFFF" transform="matrix(1.00, 0.00, -0.00, -1.00, 563.9, 588.9)">N</text><text xml:space="preserve" font-family="DINOT,DIN OT" font-size="72.0" fill="#FEFFFF" transform="matrix(1.00, 0.00, -0.00, -1.00, 616.6, 588.9)">T</text><text xml:space="preserve" font-family="DINOT,DIN OT" font-size="72.0" fill="#FEFFFF" transform="matrix(1.00, 0.00, -0.00, -1.00, 656.1, 588.9)">R</text><text xml:space="preserve" font-family="DINOT,DIN OT" font-size="72.0" fill="#FEFFFF" transform="matrix(1.00, 0.00, -0.00, -1.00, 702.9, 588.9)">O</text><text xml:space="preserve" font-family="DINOT,DIN OT" font-size="72.0" fill="#FEFFFF" transform="matrix(1.00, 0.00, -0.00, -1.00, 749.7, 588.9)">L</text><text xml:space="preserve" font-family="DINOT,DIN OT" font-size="72.0" fill="#FEFFFF" transform="matrix(1.00, 0.00, -0.00, -1.00, 791.0, 588.9)">S</text><image xlink:href="0D81184BB67D7C41431D26D8BF42FFF4.png" width="2000.00" height="500.00" transform="matrix(0.37, 0.00, -0.00, -0.37, 140.0, 527.0)"></image><image xlink:href="1652DCAD80697A78FAAF55A40CD4C3CF.png" width="500.00" height="500.00" transform="matrix(0.67, 0.00, -0.00, -0.67, 345.0, 376.0)"></image></g></svg>